<?xml version="1.0" standalone="no"?>
<!DOCTYPE svg PUBLIC "-//W3C//DTD SVG 20010904//EN"
 "http://www.w3.org/TR/2001/REC-SVG-20010904/DTD/svg10.dtd">
<svg version="1.0" xmlns="http://www.w3.org/2000/svg"
 width="100.000000pt" height="100.000000pt" viewBox="0 0 100.000000 100.000000"
 preserveAspectRatio="xMidYMid meet">
<metadata>
Created by potrace 1.11, written by Peter Selinger 2001-2013
</metadata>
<g transform="translate(0.000000,100.000000) scale(0.100000,-0.100000)"
fill="#000000" stroke="none">
<path d="M241 810 l-1 -50 75 0 75 0 0 -215 0 -215 40 0 40 0 0 -125 0 -125
59 0 59 0 0 63 c0 126 -7 113 71 120 95 8 145 37 180 104 12 23 18 95 10 123
-24 86 -76 114 -226 118 l-113 4 0 74 0 74 75 0 75 0 0 50 0 50 -208 0 -209 0
-2 -50z m472 -321 c14 -18 18 -34 14 -63 -7 -52 -26 -68 -85 -74 -49 -4 -51
-4 -54 24 -2 16 -1 55 0 88 l4 58 51 -5 c38 -3 56 -11 70 -28z"/>
</g>
</svg>
